<svg xmlns="http://www.w3.org/2000/svg" width="40" height="32" viewBox="0 0 40 32"><g transform="translate(-437 -21)"><g transform="translate(35 2)"><rect width="32" height="17" rx="4" transform="translate(402 34)" fill="#fff"/><path d="M8,0l8,11H0Z" transform="translate(431 50.5) rotate(-90)" fill="#fff"/><ellipse cx="8.5" cy="8" rx="8.5" ry="8" transform="translate(416 19)" fill="#fff"/><ellipse cx="7" cy="6.5" rx="7" ry="6.5" transform="translate(404 22)" fill="#fff"/></g><path d="M1.972,0A2.283,2.283,0,0,1,3.943,2.5,2.283,2.283,0,0,1,1.972,5,2.283,2.283,0,0,1,0,2.5,2.283,2.283,0,0,1,1.972,0Z" transform="translate(458 22)" fill="#222831"/><path d="M1.972,0A2.283,2.283,0,0,1,3.943,2.5,2.283,2.283,0,0,1,1.972,5,2.283,2.283,0,0,1,0,2.5,2.283,2.283,0,0,1,1.972,0Z" transform="translate(453 27)" fill="#222831"/><path d="M1.972,0A2.283,2.283,0,0,1,3.943,2.5,2.283,2.283,0,0,1,1.972,5,2.283,2.283,0,0,1,0,2.5,2.283,2.283,0,0,1,1.972,0Z" transform="translate(458 30)" fill="#222831"/><path d="M1.972,0A2.283,2.283,0,0,1,3.943,2.5,2.283,2.283,0,0,1,1.972,5,2.283,2.283,0,0,1,0,2.5,2.283,2.283,0,0,1,1.972,0Z" transform="translate(463 27)" fill="#222831"/><path d="M1.972,0A1.823,1.823,0,0,1,3.943,1.624,1.823,1.823,0,0,1,1.972,3.248,1.823,1.823,0,0,1,0,1.624,1.823,1.823,0,0,1,1.972,0Z" transform="translate(443.779 25.018)" fill="#222831"/><path d="M1.766,0A1.7,1.7,0,0,1,3.531,1.622,1.7,1.7,0,0,1,1.766,3.243,1.7,1.7,0,0,1,0,1.622,1.7,1.7,0,0,1,1.766,0Z" transform="translate(440 28.757)" fill="#222831"/><path d="M1.972,0A1.871,1.871,0,0,1,3.943,1.75,1.871,1.871,0,0,1,1.972,3.5,1.871,1.871,0,0,1,0,1.75,1.871,1.871,0,0,1,1.972,0Z" transform="translate(443.779 32.5)" fill="#222831"/><path d="M1.972,0A1.847,1.847,0,0,1,3.943,1.689,1.847,1.847,0,0,1,1.972,3.378,1.847,1.847,0,0,1,0,1.689,1.847,1.847,0,0,1,1.972,0Z" transform="translate(447.557 28.378)" fill="#222831"/></g></svg>